<svg width="68" height="56" viewBox="0 0 68 56" fill="none" xmlns="http://www.w3.org/2000/svg">
<path id="Vector" d="M46.278 7.00008H65.9388L68 8.77987e-05H22.667V38.5H56.6668L58.728 31.5H46.278C45.7562 31.5 45.3335 31.1085 45.3335 30.625V28.875C45.3335 28.3916 45.7562 28 46.278 28H59.7574L61.8187 21.0001H46.278C45.7562 21.0001 45.3335 20.6085 45.3335 20.1251V18.3751C45.3335 17.8916 45.7562 17.5001 46.278 17.5001H62.8481L64.9093 10.5001H46.278C45.7562 10.5001 45.3335 10.1085 45.3335 9.62507V7.87508C45.3335 7.39164 45.7562 7.00008 46.278 7.00008ZM18.7476 36.6418L15.7042 29.7227C15.376 28.9779 14.5473 28.5207 13.6689 28.6005L8.35293 29.084C6.31295 23.9499 6.26927 18.1705 8.35293 12.9271L13.6689 13.4105C14.5461 13.4904 15.376 13.0321 15.7042 12.2884L18.7476 5.3693C19.1042 4.56102 18.7712 3.63571 17.959 3.17415L13.3218 0.538212C11.6301 -0.423193 9.45556 -0.0545995 8.14043 1.3093C-2.78788 12.6405 -2.72059 29.6975 8.38835 40.9566C9.55355 42.1378 11.8261 42.3216 13.3053 41.4816L17.9579 38.8369C18.7712 38.3753 19.103 37.4511 18.7476 36.6418ZM56.6668 42H22.667C18.4938 42 15.1116 45.1336 15.1116 49V52.5C15.1116 54.4327 16.8033 56 18.8893 56H60.4445C62.5305 56 64.2223 54.4327 64.2223 52.5V49C64.2223 45.1336 60.84 42 56.6668 42ZM39.6669 52.5C37.5809 52.5 35.8892 50.9327 35.8892 49C35.8892 47.0674 37.5809 45.5 39.6669 45.5C41.7529 45.5 43.4446 47.0674 43.4446 49C43.4446 50.9327 41.7529 52.5 39.6669 52.5Z" fill="black"/>
</svg>
